<?xml version="1.0" encoding="utf-8"?>
<!-- Generator: Adobe Illustrator 25.0.0, SVG Export Plug-In . SVG Version: 6.00 Build 0)  -->
<svg version="1.1" id="Calque_1" xmlns="http://www.w3.org/2000/svg" xmlns:xlink="http://www.w3.org/1999/xlink" x="0px" y="0px"
	 viewBox="0 0 240.7 130.5" style="enable-background:new 0 0 240.7 130.5;" xml:space="preserve">
<style type="text/css">
	.st0{opacity:0.25;}
	.st1{fill:#CCE6D9;}
	.st2{fill:url(#SVGID_1_);}
	.st3{fill:url(#SVGID_2_);}
	.st4{fill:url(#SVGID_3_);}
	.st5{fill:url(#SVGID_4_);}
	.st6{fill:url(#SVGID_5_);}
	.st7{fill:#5F615F;}
	.st8{fill:#8E9592;}
	.st9{fill:#D2D8D7;}
	.st10{fill:url(#SVGID_6_);}
</style>
<g id="Calque_2_1_">
	<g class="st0">
		<path d="M74.4,20.6c3.3-0.9,8.2,3.2,7.9,5.5c-0.7,7-44.8,5.5-44.8,5.7c6.6-0.3,13.1-1.1,19.6-2.3C65.3,28.2,68.6,27,71,24
			C72,22.6,72.7,21,74.4,20.6z"/>
		<path d="M75.1,22.2c3-0.8,7.4,2.4,7.2,4.3c-0.6,5.5-40.6,5.1-40.6,5.3c6-0.4,11.9-1.1,17.8-2.1c7.4-1.3,10.3-2.2,12.5-4.7
			C72.9,23.8,73.6,22.6,75.1,22.2z"/>
		<path d="M74.2,24.4c2.3-0.6,5.5,1.8,5.3,3.2c-0.5,4.1-30.4,3.5-30.4,3.7c4.5-0.2,8.9-0.7,13.3-1.5c5.5-0.9,7.7-1.6,9.4-3.4
			C72.6,25.6,73.1,24.7,74.2,24.4z"/>
		<path d="M207.9,128.4c12.6,1.9,29.7-9.8,28.3-16.1c-4.2-18.5-168.5-7.5-168.5-8c0-0.2,33.5-0.3,73.7,2.9
			c30.8,2.4,43.2,5,52.9,12.9C198.5,123.5,201.6,127.4,207.9,128.4z"/>
		<path d="M209.3,122.9c9.6,1.5,22.4-7.6,21.4-12.5c-3.1-14.3-127-6-127.1-6.4c0-0.2,25.2-0.2,55.5,2.3c23.2,1.9,32.5,3.9,39.8,10.1
			C202.3,119.1,204.6,122.2,209.3,122.9z"/>
		<path d="M205.1,118.4c7.4,1.1,17.4-5.1,16.6-8.6c-2.3-10.1-98.3-5.5-98.3-5.7c0-0.1,19.5,0.1,43,2.2c17.9,1.6,25.2,3.1,30.8,7.5
			C199.6,115.6,201.4,117.8,205.1,118.4z"/>
		<path d="M42.4,44.7c-8.1-6.6-26-1.5-27.2,4.8c-0.4,1.8,0.3,5,7.6,10.2c-9.3-0.8-16.1-5.9-16.4-10.6C6,43.7,13.9,35.9,26.5,36
			c11.6,0.2,15.6,0.5,28.6,0.8c16.8,0.3,39.6-4.4,41.7-13.8c1-4.3-2.4-10-6.3-11.5c-4.5-1.7-9.4,2.5-9.8,1.9S86.4,4.9,95.7,4
			c6.8-0.7,15.8,2.2,19,9.3c2.6,5.9,1,13.8-3.5,18.6c-7.3,7.7-22.5,8.2-46,8.9c-1.9,0.1-7.4,0.2-11.7,3.8c-0.6,0.5-1.1,1-1.6,1.6v47
			c0,0.9-0.7,1.6-1.6,1.6h-4.7c-0.9,0-1.6-0.7-1.6-1.6l0,0v-47C43.5,45.7,43,45.2,42.4,44.7z"/>
		<path d="M60.7,87.7c0.4-1.4,1-2.8,1.6-4.2c0.5-1,1-1.9,1.7-2.8c0.5-0.6,1.1-1.1,1.7-1.5c0.5-0.3,1.1-0.5,1.6-0.5
			c0.4,0,0.7,0.1,1.1,0.2c0.3,0.1,0.7,0.4,0.9,0.6c0.3,0.3,0.5,0.7,0.6,1.1c0.2,0.5,0.2,1.1,0.2,1.7c0,0.2,0,0.5,0,0.8
			s-0.1,0.7-0.1,1.1c0,0.4-0.1,0.9-0.1,1.3c0,0.4-0.1,0.9-0.1,1.3c0,0.4-0.1,0.9-0.1,1.3c0,0.4,0,0.7,0,1c0,0.4,0,0.8,0.1,1.2
			c0,0.3,0.1,0.5,0.2,0.8c0.1,0.2,0.2,0.3,0.4,0.4c0.2,0.1,0.4,0.1,0.6,0.1c0.4,0,0.7-0.1,1.1-0.1c0.4-0.1,0.7-0.2,1.1-0.4l0.2,0.5
			c-0.3,0.2-0.6,0.4-0.9,0.6c-0.4,0.2-0.7,0.4-1.1,0.5c-0.4,0.2-0.8,0.3-1.2,0.4c-0.3,0.1-0.7,0.1-1,0.2c-0.3,0-0.6-0.1-0.8-0.3
			c-0.2-0.2-0.4-0.5-0.4-0.8c-0.1-0.4-0.2-0.8-0.2-1.1c0-0.4,0-0.9,0-1.4c0-0.5,0-1.2,0.1-1.9c0.1-0.7,0.1-1.3,0.1-1.8
			s0.1-1.1,0.1-1.6s0.1-0.9,0.1-1.2c0-0.6-0.1-1.1-0.4-1.6C67.4,81.2,67,81,66.6,81c-0.4,0-0.9,0.2-1.2,0.5
			c-0.5,0.4-0.9,0.8-1.2,1.3c-0.4,0.6-0.8,1.2-1.2,1.9c-0.4,0.8-0.7,1.6-1,2.4c-0.3,0.9-0.6,1.8-0.8,2.8c-0.2,0.9-0.3,1.9-0.4,2.9
			L58.7,93h-0.2c0-0.8,0.1-1.6,0.1-2.5c0-0.9,0.1-1.9,0.2-2.9c0.1-1,0-2,0-3.1c0-1.1,0.1-2.3,0.2-3.4c0.1-1.2,0.1-2.3,0.2-3.5
			c0.1-1.2,0.1-2.4,0.2-3.5c0.1-1.2,0.1-2.3,0.2-3.4s0.1-2.2,0.2-3.2c0-0.1,0-0.3,0.1-0.4c0.1-0.1,0.2-0.2,0.3-0.3
			c0.1-0.1,0.3-0.1,0.4-0.2c0.2,0,0.4,0,0.5,0c0.4,0,0.8,0.1,1.2,0.3c-0.1,1.3-0.3,2.5-0.4,3.6c-0.1,1.1-0.2,2.1-0.3,3.1
			c-0.1,0.9-0.2,1.8-0.3,2.6c-0.1,0.8-0.1,1.6-0.2,2.4s-0.1,1.5-0.2,2.2c-0.1,0.7-0.1,1.4-0.2,2.2c0,0.7-0.1,1.5-0.2,2.2
			S60.7,86.8,60.7,87.7L60.7,87.7z"/>
		<path d="M82.4,82.8c0-0.5-0.1-0.9-0.2-1.3c-0.3-0.7-0.9-1.2-1.6-1.5c-0.3-0.1-0.7-0.2-1-0.2c-0.4,0-0.8,0-1.2,0.1
			c-0.3,0.1-0.5,0.2-0.8,0.4c-0.2,0.2-0.3,0.4-0.4,0.6c-0.1,0.2-0.1,0.5-0.1,0.7c0,0.3,0.1,0.6,0.2,1c0.1,0.3,0.3,0.7,0.5,1v0.1
			c-0.3,0.2-0.7,0.3-1.1,0.3c-0.2,0-0.4,0-0.6-0.1c-0.2-0.1-0.4-0.2-0.5-0.3c-0.1-0.1-0.3-0.3-0.3-0.5C75.1,83,75,82.8,75,82.6
			c0-0.4,0.1-0.7,0.3-1.1c0.2-0.4,0.4-0.7,0.7-1c0.3-0.3,0.7-0.6,1-0.8c0.4-0.2,0.8-0.4,1.2-0.6c0.4-0.1,0.8-0.3,1.3-0.4
			c0.4-0.1,0.8-0.1,1.2-0.1c0.6,0,1.2,0.1,1.7,0.3c0.5,0.2,0.9,0.4,1.2,0.8c0.3,0.4,0.5,0.8,0.7,1.3c0.1,0.5,0.2,1.1,0.2,1.7
			c0,0.4,0,0.9-0.1,1.4c-0.1,0.5-0.1,1-0.1,1.6c0,0.6-0.1,1.1-0.1,1.7c0,0.6-0.1,1.2-0.1,1.8c-0.1,0.7,0.1,1.5,0.5,2.1
			c0.3,0.4,0.8,0.7,1.4,0.7c0.6,0,1.2-0.2,1.7-0.6l0.3,0.4c-0.4,0.4-0.9,0.7-1.4,1c-0.5,0.2-1.1,0.3-1.6,0.3c-0.4,0-0.8-0.1-1.2-0.2
			c-0.4-0.1-0.7-0.3-1-0.6c-0.3-0.3-0.5-0.7-0.6-1.1c-0.1-0.5-0.2-0.9-0.2-1.4c0-0.2,0-0.3,0-0.5s0-0.3,0.1-0.5h0
			c-0.3,0.6-0.6,1.1-1,1.7c-0.4,0.5-0.8,1-1.2,1.4c-0.4,0.4-0.9,0.8-1.4,1c-0.5,0.3-1,0.4-1.6,0.4c-0.4,0-0.8-0.1-1.2-0.2
			c-0.4-0.1-0.7-0.4-1-0.6c-0.3-0.3-0.5-0.6-0.6-1C74,91.1,74,90.7,74,90.3c0-0.5,0.1-1.1,0.3-1.6c0.2-0.5,0.5-0.9,0.9-1.3
			c0.4-0.4,0.8-0.7,1.3-1c0.5-0.3,1.1-0.5,1.7-0.7c0.6-0.2,1.3-0.3,1.9-0.4c0.7-0.1,1.4-0.1,2.1-0.1c0-0.4,0.1-0.8,0.1-1.2
			S82.4,83.3,82.4,82.8z M76.4,89.5c0,0.2,0,0.5,0.1,0.7c0.1,0.2,0.1,0.4,0.3,0.6c0.1,0.2,0.3,0.3,0.5,0.4c0.2,0.1,0.4,0.2,0.7,0.2
			c0.3,0,0.6-0.1,0.9-0.2c0.3-0.1,0.7-0.3,1-0.6c0.3-0.3,0.6-0.5,0.9-0.9c0.3-0.3,0.5-0.7,0.7-1.1c0.2-0.4,0.4-0.8,0.5-1.2
			c0.1-0.4,0.2-0.9,0.3-1.3c-0.5,0-1,0-1.4,0.1c-0.5,0-0.9,0.1-1.3,0.2c-0.4,0.1-0.8,0.2-1.2,0.4c-0.3,0.2-0.7,0.4-1,0.6
			c-0.3,0.2-0.5,0.5-0.6,0.9C76.5,88.7,76.4,89.1,76.4,89.5L76.4,89.5z"/>
		<path d="M93.2,66.8c-0.1,1.1-0.3,2.2-0.4,3.4c-0.1,1.2-0.2,2.3-0.4,3.5c-0.1,1.2-0.2,2.4-0.3,3.6c-0.1,1.2-0.2,2.4-0.3,3.5
			c-0.1,1.2-0.1,2.3-0.2,3.4c0,1.1-0.1,2.2-0.1,3.2c0,0.6,0,1.2,0,1.7s0,0.8,0.1,1.2c0,0.3,0.1,0.5,0.2,0.8c0,0.2,0.1,0.3,0.2,0.4
			c0.1,0.1,0.2,0.2,0.3,0.2c0.1,0,0.3,0.1,0.4,0.1c0.3,0,0.6-0.1,1-0.1c0.4-0.1,0.7-0.2,1.1-0.4l0.2,0.5c-0.3,0.2-0.6,0.4-0.9,0.6
			c-0.4,0.2-0.7,0.4-1.1,0.5c-0.4,0.2-0.7,0.3-1.1,0.4c-0.3,0.1-0.6,0.1-1,0.2c-0.3,0-0.6-0.1-0.8-0.3c-0.2-0.2-0.4-0.5-0.5-0.9
			c-0.1-0.5-0.2-1-0.2-1.6c0-0.6,0-1.4,0-2.4c0-0.3,0-0.8,0-1.4c0-0.6,0-1.4,0.1-2.2c0.1-0.8,0.1-1.7,0.1-2.7c0-1,0.1-2,0.1-3.1
			c0.1-1.1,0.1-2.1,0.2-3.2c0.1-1.1,0.1-2.1,0.2-3.1c0.1-1,0.1-1.9,0.2-2.9c0.1-1,0.1-1.7,0.1-2.4c0-0.1,0-0.3,0.1-0.4
			c0.1-0.1,0.2-0.2,0.3-0.3c0.1-0.1,0.3-0.1,0.4-0.2c0.2,0,0.3,0,0.5,0C92.4,66.5,92.8,66.6,93.2,66.8z"/>
		<path d="M104.3,82.8c0-0.5-0.1-0.9-0.3-1.3c-0.1-0.4-0.4-0.7-0.7-1c-0.3-0.2-0.6-0.4-1-0.5c-0.3-0.1-0.7-0.2-1-0.2
			c-0.4,0-0.8,0-1.2,0.1c-0.3,0.1-0.5,0.2-0.8,0.4c-0.2,0.2-0.3,0.4-0.4,0.6c-0.1,0.2-0.1,0.5-0.1,0.7c0,0.3,0.1,0.6,0.2,1
			c0.1,0.3,0.3,0.7,0.5,1v0.1c-0.3,0.2-0.7,0.3-1.1,0.3c-0.2,0-0.4,0-0.6-0.1c-0.2-0.1-0.3-0.2-0.5-0.3c-0.1-0.1-0.3-0.3-0.3-0.5
			c-0.1-0.2-0.1-0.4-0.1-0.6c0-0.4,0.1-0.8,0.2-1.1c0.2-0.4,0.4-0.7,0.7-1c0.3-0.3,0.7-0.5,1.1-0.8c0.4-0.2,0.8-0.4,1.2-0.6
			c0.4-0.1,0.8-0.3,1.3-0.4c0.4-0.1,0.8-0.1,1.2-0.1c0.6,0,1.2,0.1,1.7,0.3c0.5,0.2,0.9,0.4,1.2,0.8c0.3,0.4,0.5,0.8,0.7,1.3
			c0.1,0.5,0.2,1.1,0.2,1.7c0,0.4,0,0.9,0,1.4s-0.1,1-0.1,1.6c0,0.6-0.1,1.1-0.1,1.7c0,0.6,0,1.2,0,1.8c-0.1,0.7,0.1,1.5,0.5,2.1
			c0.3,0.5,0.8,0.7,1.4,0.7c0.6,0,1.2-0.2,1.7-0.6l0.3,0.4c-0.4,0.4-0.9,0.7-1.4,1c-0.5,0.2-1.1,0.3-1.6,0.3c-0.4,0-0.8-0.1-1.2-0.2
			c-0.4-0.1-0.7-0.3-1-0.6c-0.3-0.3-0.5-0.7-0.6-1.1c-0.2-0.5-0.2-1-0.2-1.5c0-0.2,0-0.3,0-0.5s0-0.3,0.1-0.5H104
			c-0.3,0.6-0.6,1.1-1,1.7c-0.3,0.5-0.7,1.1-1.2,1.5c-0.4,0.4-0.9,0.8-1.4,1c-0.5,0.3-1,0.4-1.6,0.4c-0.4,0-0.8-0.1-1.2-0.2
			c-0.4-0.1-0.7-0.4-1-0.6c-0.3-0.3-0.5-0.6-0.6-1c-0.2-0.4-0.2-0.8-0.2-1.2c0-0.5,0.1-1.1,0.3-1.6c0.2-0.5,0.5-0.9,0.9-1.3
			c0.4-0.4,0.8-0.7,1.3-1c0.5-0.3,1.1-0.5,1.7-0.7c0.6-0.2,1.3-0.3,1.9-0.4c0.7-0.1,1.4-0.1,2.1-0.1c0-0.4,0.1-0.8,0.1-1.2
			C104.3,83.7,104.3,83.3,104.3,82.8z M98.3,89.5c0,0.2,0,0.5,0.1,0.7c0.1,0.2,0.1,0.4,0.3,0.6c0.1,0.2,0.3,0.3,0.5,0.4
			c0.2,0.1,0.4,0.2,0.7,0.2c0.3,0,0.7-0.1,1-0.2c0.3-0.1,0.7-0.3,1-0.6c0.3-0.3,0.6-0.5,0.9-0.9c0.3-0.3,0.5-0.7,0.7-1.1
			c0.2-0.4,0.4-0.8,0.5-1.2c0.2-0.4,0.2-0.9,0.3-1.3c-0.5,0-1,0-1.4,0.1c-0.5,0-0.9,0.1-1.3,0.2c-0.4,0.1-0.8,0.2-1.2,0.4
			c-0.4,0.2-0.7,0.4-1,0.6c-0.3,0.2-0.5,0.5-0.6,0.9C98.4,88.7,98.4,89.1,98.3,89.5L98.3,89.5z"/>
		<path d="M111.8,89.3c0,0.4,0.2,0.9,0.4,1.3c0.2,0.3,0.5,0.6,0.8,0.9c0.3,0.2,0.7,0.4,1.1,0.5c0.4,0.1,0.8,0.2,1.2,0.2
			c0.3,0,0.7,0,1-0.1c0.3-0.1,0.6-0.2,0.9-0.4c0.2-0.2,0.5-0.4,0.6-0.7c0.2-0.3,0.2-0.6,0.2-0.9c0-0.3-0.1-0.6-0.2-0.9
			c-0.2-0.3-0.4-0.5-0.6-0.7c-0.3-0.2-0.6-0.4-1-0.6c-0.4-0.2-0.7-0.4-1.1-0.6l-1-0.5c-0.3-0.2-0.7-0.4-1-0.5
			c-0.3-0.2-0.7-0.4-1-0.6c-0.3-0.2-0.5-0.5-0.7-0.8c-0.2-0.3-0.4-0.6-0.5-1c-0.1-0.4-0.2-0.8-0.2-1.1c0-0.4,0.1-0.8,0.2-1.2
			c0.2-0.4,0.4-0.7,0.6-1c0.3-0.3,0.6-0.6,1-0.8c0.4-0.2,0.7-0.4,1.1-0.6c0.4-0.2,0.8-0.3,1.2-0.3c0.4-0.1,0.8-0.1,1.2-0.1
			c0.5,0,1,0.1,1.5,0.2c0.4,0.1,0.8,0.3,1.2,0.5c0.3,0.2,0.6,0.5,0.8,0.8c0.2,0.3,0.3,0.7,0.3,1.1c0,0.2,0,0.3-0.1,0.5
			c-0.1,0.2-0.1,0.3-0.3,0.5c-0.1,0.2-0.3,0.3-0.5,0.4c-0.2,0.1-0.5,0.2-0.7,0.2c-0.3,0-0.6,0-0.9-0.1v-0.1c0.1-0.2,0.2-0.4,0.2-0.6
			c0-0.2,0.1-0.3,0.1-0.5c0-0.3-0.1-0.5-0.2-0.8c-0.1-0.2-0.3-0.4-0.5-0.5c-0.2-0.1-0.5-0.2-0.7-0.3c-0.7-0.1-1.4-0.1-2,0.1
			c-0.3,0.1-0.7,0.3-1,0.5c-0.2,0.2-0.4,0.4-0.6,0.7c-0.1,0.2-0.2,0.5-0.2,0.8c0,0.3,0.1,0.7,0.3,1c0.2,0.3,0.5,0.6,0.7,0.8
			c0.3,0.2,0.7,0.5,1.1,0.7c0.4,0.2,0.8,0.4,1.3,0.6l1.5,0.7c0.5,0.2,0.9,0.5,1.3,0.9c0.4,0.3,0.7,0.7,1,1.1
			c0.2,0.4,0.4,0.9,0.4,1.5c0,0.6-0.1,1.2-0.4,1.8c-0.3,0.5-0.7,1-1.2,1.3c-0.5,0.4-1.1,0.6-1.7,0.8c-0.6,0.2-1.3,0.3-2,0.3
			c-0.4,0-0.7,0-1.1-0.1c-0.4-0.1-0.7-0.1-1.1-0.2c-0.3-0.1-0.6-0.2-1-0.4c-0.3-0.1-0.6-0.3-0.8-0.5c-0.2-0.2-0.4-0.4-0.5-0.7
			c-0.1-0.2-0.2-0.5-0.2-0.8c0-0.2,0.1-0.4,0.2-0.6c0.1-0.2,0.2-0.3,0.4-0.4c0.2-0.1,0.4-0.2,0.6-0.2c0.2-0.1,0.4-0.1,0.7-0.1
			L111.8,89.3z"/>
		<path d="M123.3,89.3c0,0.4,0.2,0.9,0.4,1.3c0.2,0.3,0.5,0.6,0.8,0.9c0.3,0.2,0.7,0.4,1.1,0.5c0.4,0.1,0.8,0.2,1.2,0.2
			c0.3,0,0.7,0,1-0.1c0.3-0.1,0.6-0.2,0.9-0.4c0.2-0.2,0.5-0.4,0.6-0.7c0.1-0.3,0.2-0.6,0.2-0.9c0-0.3-0.1-0.6-0.2-0.9
			c-0.2-0.3-0.4-0.5-0.6-0.7c-0.3-0.2-0.6-0.4-1-0.6c-0.4-0.2-0.7-0.4-1.1-0.6l-1-0.5c-0.3-0.2-0.7-0.4-1-0.5
			c-0.3-0.2-0.6-0.4-0.9-0.6c-0.3-0.2-0.5-0.5-0.7-0.8c-0.2-0.3-0.4-0.6-0.5-1c-0.1-0.4-0.2-0.8-0.2-1.1c0-0.4,0.1-0.8,0.2-1.2
			c0.2-0.4,0.4-0.7,0.6-1c0.3-0.3,0.6-0.6,1-0.8c0.4-0.2,0.7-0.4,1.1-0.6c0.4-0.2,0.8-0.3,1.2-0.3c0.4-0.1,0.8-0.1,1.2-0.1
			c0.5,0,1,0.1,1.5,0.2c0.4,0.1,0.8,0.3,1.2,0.5c0.3,0.2,0.6,0.5,0.8,0.8c0.2,0.3,0.3,0.7,0.3,1.1c0,0.2,0,0.3-0.1,0.5
			c-0.1,0.2-0.1,0.3-0.3,0.5c-0.1,0.2-0.3,0.3-0.5,0.4c-0.2,0.1-0.5,0.2-0.7,0.2c-0.3,0-0.6,0-0.9-0.1v-0.1c0.1-0.2,0.2-0.4,0.2-0.6
			c0-0.2,0.1-0.3,0.1-0.5c0-0.3-0.1-0.5-0.2-0.8c-0.1-0.2-0.3-0.4-0.5-0.5c-0.2-0.1-0.5-0.2-0.7-0.3c-0.7-0.1-1.4-0.1-2,0.1
			c-0.3,0.1-0.7,0.3-1,0.5c-0.2,0.2-0.4,0.4-0.6,0.7c-0.1,0.2-0.2,0.5-0.2,0.8c0,0.3,0.1,0.7,0.3,1c0.2,0.3,0.5,0.6,0.7,0.8
			c0.3,0.2,0.7,0.5,1.1,0.7l1.3,0.6l1.5,0.7c0.5,0.2,0.9,0.5,1.3,0.9c0.4,0.3,0.7,0.7,1,1.1c0.2,0.4,0.4,0.9,0.4,1.5
			c0,0.6-0.1,1.2-0.4,1.8c-0.3,0.5-0.7,1-1.2,1.3c-0.5,0.4-1.1,0.6-1.7,0.8c-0.6,0.2-1.3,0.3-2,0.3c-0.4,0-0.7,0-1.1-0.1
			c-0.4-0.1-0.7-0.1-1.1-0.2c-0.3-0.1-0.6-0.2-1-0.4c-0.3-0.1-0.6-0.3-0.8-0.5c-0.2-0.2-0.4-0.4-0.5-0.7c-0.1-0.2-0.2-0.5-0.2-0.8
			c0-0.2,0.1-0.4,0.2-0.6c0.1-0.2,0.2-0.3,0.4-0.4c0.2-0.1,0.4-0.2,0.6-0.2c0.2-0.1,0.4-0.1,0.7-0.1L123.3,89.3z"/>
		<path d="M150.5,90l0.2,0.1l0.2,0.1c0,0,0.1,0.1,0.1,0.1c0,0,0.1,0.1,0.1,0.1c0,0,0,0.1,0,0.1c-0.3,0.5-0.7,0.9-1.2,1.3
			c-0.4,0.4-0.8,0.7-1.3,1c-0.4,0.2-0.9,0.4-1.4,0.6c-0.5,0.1-0.9,0.2-1.4,0.2c-0.7,0-1.5-0.2-2.1-0.5c-0.6-0.3-1.2-0.7-1.7-1.3
			c-0.5-0.6-0.8-1.2-1.1-1.9c-0.3-0.8-0.4-1.6-0.4-2.4c0-0.7,0.1-1.4,0.2-2.1c0.3-1.4,0.9-2.6,1.7-3.7c0.4-0.5,0.9-1,1.4-1.4
			c0.5-0.4,1.1-0.7,1.7-1c0.7-0.2,1.3-0.3,2-0.3c0.5,0,0.9,0.1,1.4,0.2c0.4,0.1,0.8,0.3,1.1,0.6c0.3,0.2,0.6,0.5,0.8,0.9
			c0.5,1,0.4,2.1-0.4,2.9c-0.5,0.5-1.1,1-1.8,1.3c-0.9,0.4-1.8,0.7-2.7,0.8c-1.1,0.2-2.2,0.4-3.3,0.5v0.2c0,0.8,0.1,1.5,0.3,2.3
			c0.2,0.6,0.5,1.2,0.9,1.7c0.3,0.5,0.8,0.9,1.3,1.1c0.5,0.3,1.1,0.4,1.6,0.4c0.6,0,1.2-0.2,1.8-0.4C149.3,91,150,90.6,150.5,90z
			 M148.7,82.2c0-0.3,0-0.6-0.2-0.8c-0.2-0.5-0.6-0.9-1.1-1.1c-0.3-0.1-0.5-0.2-0.8-0.2c-0.4,0-0.8,0.1-1.1,0.2
			c-0.4,0.1-0.7,0.4-1,0.6c-0.3,0.3-0.5,0.6-0.7,0.9c-0.2,0.3-0.4,0.7-0.5,1.1c-0.1,0.4-0.3,0.8-0.4,1.2c-0.1,0.4-0.1,0.8-0.2,1.2
			c0.8,0,1.7-0.2,2.5-0.3c0.6-0.1,1.3-0.3,1.8-0.6c0.5-0.2,0.8-0.5,1.2-0.9C148.6,83,148.7,82.6,148.7,82.2z"/>
		<path d="M161.1,83c0-0.5-0.1-0.9-0.2-1.3c-0.3-0.7-0.9-1.2-1.6-1.5c-0.3-0.1-0.7-0.2-1-0.2c-0.4,0-0.8,0-1.2,0.1
			c-0.3,0.1-0.5,0.2-0.8,0.4c-0.2,0.2-0.3,0.4-0.4,0.6c-0.1,0.2-0.1,0.5-0.1,0.7c0,0.3,0.1,0.6,0.2,1c0.1,0.3,0.3,0.7,0.5,1v0.1
			c-0.3,0.2-0.7,0.3-1.1,0.3c-0.2,0-0.4,0-0.6-0.1c-0.2-0.1-0.3-0.2-0.5-0.3c-0.1-0.1-0.3-0.3-0.3-0.5c-0.1-0.2-0.1-0.4-0.1-0.6
			c0-0.4,0.1-0.7,0.3-1.1c0.2-0.4,0.4-0.7,0.7-1c0.3-0.3,0.7-0.5,1.1-0.7c0.4-0.2,0.8-0.4,1.2-0.6c0.4-0.1,0.9-0.3,1.3-0.4
			c0.4-0.1,0.8-0.1,1.2-0.1c0.6,0,1.2,0.1,1.7,0.3c0.5,0.2,0.9,0.4,1.2,0.8c0.3,0.4,0.5,0.8,0.6,1.2c0.1,0.5,0.2,1.1,0.2,1.7
			c0,0.4,0,0.9,0,1.4c0,0.5-0.1,1.1-0.1,1.6c0,0.6-0.1,1.1-0.1,1.7c0,0.6-0.1,1.2-0.1,1.8c0,0.7,0.1,1.5,0.5,2.1
			c0.3,0.5,0.8,0.7,1.4,0.7c0.6,0,1.2-0.2,1.7-0.6l0.3,0.4c-0.4,0.4-0.9,0.7-1.4,1c-0.5,0.2-1.1,0.3-1.6,0.3c-0.4,0-0.8-0.1-1.2-0.2
			c-0.4-0.1-0.7-0.3-1-0.6c-0.3-0.3-0.5-0.7-0.6-1.1c-0.1-0.5-0.2-1-0.2-1.5c0-0.2,0-0.3,0-0.5c0-0.2,0-0.4,0.1-0.5h-0.1
			c-0.3,0.6-0.6,1.1-1,1.6c-0.3,0.5-0.8,1-1.2,1.5c-0.4,0.4-0.9,0.8-1.4,1c-0.5,0.3-1,0.4-1.6,0.4c-0.4,0-0.8-0.1-1.2-0.2
			c-0.4-0.1-0.7-0.4-1-0.6c-0.3-0.3-0.5-0.6-0.6-1c-0.1-0.4-0.2-0.8-0.2-1.2c0-0.5,0.1-1.1,0.3-1.6c0.2-0.5,0.5-0.9,0.9-1.3
			c0.4-0.4,0.8-0.7,1.3-1c0.5-0.3,1.1-0.5,1.7-0.7c0.6-0.2,1.3-0.3,1.9-0.4c0.7-0.1,1.4-0.1,2.1-0.1c0-0.4,0.1-0.8,0.1-1.2
			S161.1,83.5,161.1,83z M155.1,89.7c0,0.2,0,0.5,0.1,0.7c0,0.2,0.1,0.4,0.3,0.6c0.1,0.2,0.3,0.3,0.5,0.4c0.2,0.1,0.4,0.2,0.7,0.1
			c0.3,0,0.6-0.1,0.9-0.2c0.3-0.1,0.7-0.3,1-0.6c0.3-0.3,0.6-0.5,0.9-0.9c0.3-0.3,0.5-0.7,0.7-1.1c0.2-0.4,0.4-0.8,0.6-1.3
			c0.1-0.4,0.2-0.9,0.3-1.3c-0.5,0-1,0-1.4,0.1c-0.5,0-0.9,0.1-1.3,0.2c-0.4,0.1-0.8,0.2-1.2,0.4c-0.4,0.1-0.7,0.4-1,0.6
			c-0.3,0.3-0.5,0.6-0.6,0.9C155.2,88.9,155.1,89.3,155.1,89.7z"/>
		<path d="M171.2,80.8c0,0.4,0,1,0,1.4s-0.1,1-0.1,1.5c0,0.5-0.1,1-0.1,1.5c0,0.5-0.1,1-0.1,1.5s-0.1,0.9-0.1,1.3c0,0.4,0,0.7,0,1
			c0,0.6,0.1,1.2,0.4,1.7c0.3,0.4,0.7,0.6,1.2,0.5c0.7-0.1,1.3-0.4,1.7-0.9c0.7-0.8,1.3-1.7,1.7-2.6c0.6-1.2,1-2.5,1.3-3.8
			c0.4-1.5,0.6-3.1,0.7-4.6l2.1-0.2h0.2c-0.1,0.6-0.1,1.3-0.2,1.9s-0.1,1.4-0.1,2.1s-0.1,1.4-0.1,2c0,0.7,0,1.3,0,1.8
			c0,0.9,0.1,1.7,0.2,2.6c0.1,0.5,0.2,1.1,0.5,1.6c0.1,0.3,0.4,0.6,0.7,0.8c0.2,0.1,0.5,0.2,0.8,0.2c0.2,0,0.3,0,0.4-0.1l0.4-0.1
			c0.1-0.1,0.2-0.1,0.4-0.2l0.3-0.2l0.3,0.4c-0.2,0.2-0.4,0.4-0.6,0.6c-0.2,0.2-0.5,0.3-0.8,0.4c-0.3,0.1-0.5,0.2-0.8,0.3
			c-0.3,0.1-0.6,0.1-0.9,0.1c-0.4,0-0.8-0.1-1.1-0.2c-0.4-0.2-0.7-0.4-1-0.7c-0.3-0.4-0.5-0.9-0.7-1.4c-0.2-0.7-0.3-1.4-0.2-2.2
			c0-0.3,0-0.6,0-0.8s0-0.6,0.1-0.9s0.1-0.7,0.1-1c0-0.4,0.1-0.8,0.2-1.2h-0.1c-0.4,1.4-0.8,2.8-1.4,4.1c-0.4,1-1,1.9-1.6,2.7
			c-0.4,0.6-1,1.1-1.6,1.4c-0.5,0.3-1,0.4-1.6,0.4c-0.4,0-0.7-0.1-1.1-0.2c-0.4-0.1-0.7-0.3-1-0.6c-0.3-0.3-0.5-0.7-0.6-1.1
			c-0.2-0.6-0.3-1.2-0.2-1.7c0-0.4,0-1,0.1-1.6s0.1-1.2,0.2-1.9s0.1-1.4,0.2-2.1s0.1-1.4,0.1-2.1c0-0.3,0-0.5,0-0.7
			c0-0.2-0.1-0.4-0.1-0.5c-0.1-0.1-0.2-0.2-0.3-0.3c-0.2-0.1-0.3-0.1-0.5-0.1c-0.3,0-0.6,0-0.9,0.1c-0.4,0.1-0.7,0.2-1.1,0.3
			l-0.1-0.7c0.5-0.2,1-0.4,1.5-0.5l1.2-0.3l0.9-0.2c0.2,0,0.4-0.1,0.6-0.1c0.2,0,0.4,0,0.6,0.1c0.2,0.1,0.3,0.2,0.4,0.4
			c0.1,0.2,0.2,0.4,0.2,0.6C171.2,80.3,171.2,80.6,171.2,80.8z"/>
		<path d="M224.7,82.2c2,2.3,3.3,6.1,2.1,9.2c-2.4,5.9-13.3,5.8-19,5.7c-3,0-18.6-0.2-20.3-6.7c-1-3.6,2.6-7.3,3.1-7.7
			c3.4-3.5,7.9-3.6,16.9-3.8C216.9,78.8,221.8,78.8,224.7,82.2z"/>
		<path d="M224.3,81.8c1.9,1.8,3,4.9,1.8,7.3c-2.5,4.6-12.9,4.5-18.4,4.4c-2.9,0-17.8-0.2-19.4-5.4c-0.8-2.9,2.7-5.7,3.1-6.1
			c3.3-2.7,7.7-2.8,16.3-2.9C216.9,79,221.6,79.1,224.3,81.8z"/>
		<path d="M219.5,63c0,2.7-7.4,4.8-16.5,4.8c-9.1,0-9.1-9.7,0-9.7C212.1,58.2,219.5,60.3,219.5,63z"/>
		<path d="M218.8,62.2c0,2-7.1,3.5-15.6,3.3c-8.6-0.2-8.4-7.5,0.2-7.3C211.9,58.4,218.8,60.2,218.8,62.2z"/>
		<path d="M224.2,74.8c-1.2,3.6-8.6,3.9-15.2,4.1c-5.8,0.2-16.4,0.6-17.7-3.4c-0.7-2.1,1.4-4.4,1.9-4.9c1.7-1.9,4-2.7,13.6-3.1
			c12.6-0.5,14.6,0.6,15.8,2C222.7,69.7,225,72.4,224.2,74.8z"/>
		<path d="M223.9,73.5c-1.2,2.9-8.3,3.2-14.8,3.3c-5.7,0.2-16,0.5-17.2-2.7c-0.6-1.7,1.4-3.5,1.8-3.9c1.7-1.5,3.9-2.2,13.2-2.5
			c12.2-0.4,14.2,0.5,15.4,1.6C222.4,69.4,224.7,71.6,223.9,73.5z"/>
		<path d="M214.1,55.5c-0.2,1.7-3.6,2.9-6.1,2.9c-2.2,0-5.6-0.8-6.1-2.9c-0.1-0.8,0.1-1.6,0.5-2.3c1.6-2.3,6-2.4,8.9-0.9
			C211.8,52.6,214.3,53.9,214.1,55.5z"/>
		<path d="M213.5,54.7c-0.1,1.5-3.2,2.6-5.6,2.7c-2.1,0.1-5.2-0.6-5.7-2.3c-0.1-0.7,0-1.4,0.4-2c1.4-2.1,5.5-2.3,8.2-1
			C211.2,52.2,213.6,53.3,213.5,54.7z"/>
		<path d="M203.2,82c0.2,0.6-1.2,1.4-4.1,3.1c-1.3,0.8-2.7,1.4-4.1,1.7c-1,0.2-2.4,0.5-3.4,0.1c-1.1-0.5-1-1.7-0.5-2.5
			c1-1.6,3.6-2.3,4.4-2.5C198.7,81,202.8,81.1,203.2,82z"/>
		<path d="M202.4,70.3c0,0.4-0.8,0.8-2.1,1.4c-0.7,0.4-1.5,0.7-2.4,1c-1.7,0.3-3.9,0.1-4.1-0.6c-0.1-0.7,2-2,4-2.4
			C200,69.2,202.4,69.7,202.4,70.3z"/>
		<path d="M206.3,59.7c0,0.2-1,0.4-3,1c-1.6,0.4-2.3,0.6-3.1,0.3c-0.4-0.2-1.2-0.5-1.2-1c0-0.6,2-1,3.2-1.1
			C204.2,58.8,206.3,59.3,206.3,59.7z"/>
		<path d="M204.6,54.9c0.3-0.1,0.3-0.5,0.5-0.9c0.6-1.2,1.9-1.2,1.9-1.5c-0.1-0.3-1.3-0.6-2.2-0.1c-0.7,0.4-1.4,1.2-1.2,1.9
			C203.7,54.7,204.2,55,204.6,54.9z"/>
		<path d="M139.5,76.7c0.5-1,0.7-2.1,0.6-3.2c-0.2-0.8-0.6-1.6-1.3-2.1c-0.2-0.1-1.8-1.2-3.2-0.3c-1.1,0.7-1.5,2.1-1,3.3
			c0.4,0.8,1,0.7,1.4,1.3c1.6,1.9-1.3,6.6-0.8,6.8c0,0,0.2,0,2-2.4C138.1,79.1,138.9,78,139.5,76.7z"/>
		<path d="M138.3,76.4c0.1-0.4,0.1-0.8,0.1-1.3c0-0.2-0.1-0.5-0.1-0.7c0-0.2-0.1-0.3-0.2-0.4l0,0c-0.3-0.3-0.3-0.7-0.2-1
			c0.1-0.2,0.3-0.4,0.5-0.4c0.3,0,0.8,0.4,0.8,1.1c0,0.1,0,0.2-0.1,0.4L138.3,76.4z"/>
	</g>
	<g>
		<g>
			<g id="Calque_3_9_">
				<g id="Calque_4_9_">
					<path class="st1" d="M73.4,19.6c3.3-0.9,8.2,3.2,7.9,5.5c-0.7,7-44.8,5.5-44.8,5.7c6.6-0.3,13.1-1.1,19.6-2.3
						C64.3,27.2,67.6,26,70,23C71,21.6,71.7,20,73.4,19.6z"/>
					
						<linearGradient id="SVGID_1_" gradientUnits="userSpaceOnUse" x1="40.6476" y1="106.1018" x2="81.294" y2="106.1018" gradientTransform="matrix(1 0 0 -1 0 132)">
						<stop  offset="0" style="stop-color:#76C3AF"/>
						<stop  offset="0.21" style="stop-color:#7AC5B1"/>
						<stop  offset="0.43" style="stop-color:#87CAB7"/>
						<stop  offset="0.65" style="stop-color:#9CD2C2"/>
						<stop  offset="0.88" style="stop-color:#B9DED0"/>
						<stop  offset="1" style="stop-color:#CCE6D9"/>
					</linearGradient>
					<path class="st2" d="M74.1,21.2c3-0.8,7.4,2.4,7.2,4.3c-0.6,5.5-40.6,5.1-40.6,5.3c6-0.4,11.9-1.1,17.8-2.1
						c7.4-1.3,10.3-2.2,12.5-4.7C71.9,22.8,72.6,21.6,74.1,21.2z"/>
					<g>
						
							<linearGradient id="SVGID_2_" gradientUnits="userSpaceOnUse" x1="48.2137" y1="105.2041" x2="78.5993" y2="105.2041" gradientTransform="matrix(1 0 0 -1 0 132)">
							<stop  offset="0.23" style="stop-color:#76C3AF"/>
							<stop  offset="0.59" style="stop-color:#78C4B0"/>
							<stop  offset="0.72" style="stop-color:#7FC7B3"/>
							<stop  offset="0.81" style="stop-color:#8ACBB9"/>
							<stop  offset="0.88" style="stop-color:#9BD2C1"/>
							<stop  offset="0.94" style="stop-color:#B1DBCC"/>
							<stop  offset="1" style="stop-color:#CCE6D9"/>
							<stop  offset="1" style="stop-color:#CCE6D9"/>
						</linearGradient>
						<path class="st3" d="M73.2,23.4c2.3-0.6,5.5,1.8,5.3,3.2c-0.5,4.1-30.4,3.5-30.4,3.7c4.5-0.2,8.9-0.7,13.3-1.5
							c5.5-0.9,7.7-1.6,9.4-3.4C71.6,24.6,72.1,23.7,73.2,23.4z"/>
					</g>
					<path class="st1" d="M206.9,127.4c12.6,1.9,29.7-9.8,28.3-16.1c-4.2-18.5-168.5-7.5-168.5-8c0-0.2,33.5-0.3,73.7,2.9
						c30.8,2.4,43.2,5,52.9,12.9C197.5,122.5,200.6,126.4,206.9,127.4z"/>
					
						<linearGradient id="SVGID_3_" gradientUnits="userSpaceOnUse" x1="102.6572" y1="20.447" x2="229.7757" y2="20.447" gradientTransform="matrix(1 0 0 -1 0 132)">
						<stop  offset="0" style="stop-color:#76C3AF"/>
						<stop  offset="0.34" style="stop-color:#78C4B0"/>
						<stop  offset="0.53" style="stop-color:#81C7B4"/>
						<stop  offset="0.68" style="stop-color:#8FCDBB"/>
						<stop  offset="0.82" style="stop-color:#A2D5C5"/>
						<stop  offset="0.94" style="stop-color:#BCDFD1"/>
						<stop  offset="1" style="stop-color:#CCE6D9"/>
					</linearGradient>
					<path class="st4" d="M208.3,121.9c9.6,1.5,22.4-7.6,21.4-12.5c-3.1-14.3-127-6-127.1-6.4c0-0.2,25.2-0.2,55.5,2.3
						c23.2,1.9,32.5,3.9,39.8,10.1C201.3,118.1,203.6,121.2,208.3,121.9z"/>
					<g>
						
							<linearGradient id="SVGID_4_" gradientUnits="userSpaceOnUse" x1="122.4418" y1="22.1452" x2="220.7582" y2="22.1452" gradientTransform="matrix(1 0 0 -1 0 132)">
							<stop  offset="0.39" style="stop-color:#76C3AF"/>
							<stop  offset="0.67" style="stop-color:#78C4B0"/>
							<stop  offset="0.78" style="stop-color:#7FC7B3"/>
							<stop  offset="0.85" style="stop-color:#8ACBB9"/>
							<stop  offset="0.91" style="stop-color:#9BD2C1"/>
							<stop  offset="0.96" style="stop-color:#B1DBCC"/>
							<stop  offset="1" style="stop-color:#CCE6D9"/>
							<stop  offset="1" style="stop-color:#CCE6D9"/>
						</linearGradient>
						<path class="st5" d="M204.1,117.4c7.4,1.1,17.4-5.1,16.6-8.6c-2.3-10.1-98.3-5.5-98.3-5.7c0-0.1,19.5,0.1,43,2.2
							c17.9,1.6,25.2,3.1,30.8,7.5C198.6,114.6,200.4,116.8,204.1,117.4z"/>
					</g>
					
						<linearGradient id="SVGID_5_" gradientUnits="userSpaceOnUse" x1="5.3526" y1="83.5774" x2="114.965" y2="83.5774" gradientTransform="matrix(1 0 0 -1 0 132)">
						<stop  offset="0" style="stop-color:#76C3AF"/>
						<stop  offset="0.29" style="stop-color:#79C4B0"/>
						<stop  offset="0.48" style="stop-color:#82C8B5"/>
						<stop  offset="0.66" style="stop-color:#91CEBC"/>
						<stop  offset="0.82" style="stop-color:#A7D7C7"/>
						<stop  offset="0.96" style="stop-color:#C3E2D5"/>
						<stop  offset="1" style="stop-color:#CCE6D9"/>
					</linearGradient>
					<path class="st6" d="M41.4,43.7c-8.1-6.6-26-1.5-27.2,4.8c-0.4,1.8,0.3,5,7.6,10.2c-9.3-0.8-16.1-5.9-16.4-10.6
						C5,42.7,12.9,34.9,25.5,35c11.6,0.2,15.6,0.5,28.6,0.8c16.8,0.3,39.6-4.4,41.7-13.8c1-4.3-2.4-10-6.3-11.5
						c-4.5-1.7-9.4,2.5-9.8,1.9S85.4,3.9,94.7,3c6.8-0.7,15.8,2.2,19,9.3c2.6,5.9,1,13.8-3.5,18.6c-7.3,7.7-22.5,8.2-46,8.9
						c-1.9,0.1-7.4,0.2-11.7,3.8c-0.6,0.5-1.1,1-1.6,1.6v47c0,0.9-0.7,1.6-1.6,1.6h-4.7c-0.9,0-1.6-0.7-1.6-1.6l0,0v-47
						C42.5,44.7,42,44.2,41.4,43.7z"/>
					<path class="st7" d="M59.7,86.7c0.4-1.4,1-2.8,1.6-4.2c0.5-1,1-1.9,1.7-2.8c0.5-0.6,1.1-1.1,1.7-1.5c0.5-0.3,1.1-0.5,1.6-0.5
						c0.4,0,0.7,0.1,1.1,0.2c0.3,0.1,0.7,0.4,0.9,0.6c0.3,0.3,0.5,0.7,0.6,1.1c0.2,0.5,0.2,1.1,0.2,1.7c0,0.2,0,0.5,0,0.8
						s-0.1,0.7-0.1,1.1c0,0.4-0.1,0.9-0.1,1.3c0,0.4-0.1,0.9-0.1,1.3c0,0.4-0.1,0.9-0.1,1.3c0,0.4,0,0.7,0,1c0,0.4,0,0.8,0.1,1.2
						c0,0.3,0.1,0.5,0.2,0.8c0.1,0.2,0.2,0.3,0.4,0.4c0.2,0.1,0.4,0.1,0.6,0.1c0.4,0,0.7-0.1,1.1-0.1c0.4-0.1,0.7-0.2,1.1-0.4
						l0.2,0.5c-0.3,0.2-0.6,0.4-0.9,0.6c-0.4,0.2-0.7,0.4-1.1,0.5c-0.4,0.2-0.8,0.3-1.2,0.4c-0.3,0.1-0.7,0.1-1,0.2
						c-0.3,0-0.6-0.1-0.8-0.3c-0.2-0.2-0.4-0.5-0.4-0.8c-0.1-0.4-0.2-0.8-0.2-1.1c0-0.4,0-0.9,0-1.4c0-0.5,0-1.2,0.1-1.9
						c0.1-0.7,0.1-1.3,0.1-1.8s0.1-1.1,0.1-1.6s0.1-0.9,0.1-1.2c0-0.6-0.1-1.1-0.4-1.6C66.4,80.2,66,80,65.6,80
						c-0.4,0-0.9,0.2-1.2,0.5c-0.5,0.4-0.9,0.8-1.2,1.3c-0.4,0.6-0.8,1.2-1.2,1.9c-0.4,0.8-0.7,1.6-1,2.4c-0.3,0.9-0.6,1.8-0.8,2.8
						c-0.2,0.9-0.3,1.9-0.4,2.9L57.7,92h-0.2c0-0.8,0.1-1.6,0.1-2.5c0-0.9,0.1-1.9,0.2-2.9c0.1-1,0-2,0-3.1c0-1.1,0.1-2.3,0.2-3.4
						c0.1-1.2,0.1-2.3,0.2-3.5c0.1-1.2,0.1-2.4,0.2-3.5c0.1-1.2,0.1-2.3,0.2-3.4s0.1-2.2,0.2-3.2c0-0.1,0-0.3,0.1-0.4
						c0.1-0.1,0.2-0.2,0.3-0.3c0.1-0.1,0.3-0.1,0.4-0.2c0.2,0,0.4,0,0.5,0c0.4,0,0.8,0.1,1.2,0.3c-0.1,1.3-0.3,2.5-0.4,3.6
						c-0.1,1.1-0.2,2.1-0.3,3.1c-0.1,0.9-0.2,1.8-0.3,2.6c-0.1,0.8-0.1,1.6-0.2,2.4s-0.1,1.5-0.2,2.2c-0.1,0.7-0.1,1.4-0.2,2.2
						c0,0.7-0.1,1.5-0.2,2.2S59.7,85.8,59.7,86.7L59.7,86.7z"/>
					<path class="st7" d="M81.4,81.8c0-0.5-0.1-0.9-0.2-1.3c-0.3-0.7-0.9-1.2-1.6-1.5c-0.3-0.1-0.7-0.2-1-0.2c-0.4,0-0.8,0-1.2,0.1
						c-0.3,0.1-0.5,0.2-0.8,0.4c-0.2,0.2-0.3,0.4-0.4,0.6c-0.1,0.2-0.1,0.5-0.1,0.7c0,0.3,0.1,0.6,0.2,1c0.1,0.3,0.3,0.7,0.5,1v0.1
						c-0.3,0.2-0.7,0.3-1.1,0.3c-0.2,0-0.4,0-0.6-0.1c-0.2-0.1-0.4-0.2-0.5-0.3c-0.1-0.1-0.3-0.3-0.3-0.5C74.1,82,74,81.8,74,81.6
						c0-0.4,0.1-0.7,0.3-1.1c0.2-0.4,0.4-0.7,0.7-1c0.3-0.3,0.7-0.6,1-0.8c0.4-0.2,0.8-0.4,1.2-0.6c0.4-0.1,0.8-0.3,1.3-0.4
						c0.4-0.1,0.8-0.1,1.2-0.1c0.6,0,1.2,0.1,1.7,0.3c0.5,0.2,0.9,0.4,1.2,0.8c0.3,0.4,0.5,0.8,0.7,1.3c0.1,0.5,0.2,1.1,0.2,1.7
						c0,0.4,0,0.9-0.1,1.4c-0.1,0.5-0.1,1-0.1,1.6c0,0.6-0.1,1.1-0.1,1.7c0,0.6-0.1,1.2-0.1,1.8c-0.1,0.7,0.1,1.5,0.5,2.1
						c0.3,0.4,0.8,0.7,1.4,0.7c0.6,0,1.2-0.2,1.7-0.6l0.3,0.4c-0.4,0.4-0.9,0.7-1.4,1c-0.5,0.2-1.1,0.3-1.6,0.3
						c-0.4,0-0.8-0.1-1.2-0.2c-0.4-0.1-0.7-0.3-1-0.6c-0.3-0.3-0.5-0.7-0.6-1.1c-0.1-0.5-0.2-0.9-0.2-1.4c0-0.2,0-0.3,0-0.5
						s0-0.3,0.1-0.5h0c-0.3,0.6-0.6,1.1-1,1.7c-0.4,0.5-0.8,1-1.2,1.4c-0.4,0.4-0.9,0.8-1.4,1c-0.5,0.3-1,0.4-1.6,0.4
						c-0.4,0-0.8-0.1-1.2-0.2c-0.4-0.1-0.7-0.4-1-0.6c-0.3-0.3-0.5-0.6-0.6-1C73,90.1,73,89.7,73,89.3c0-0.5,0.1-1.1,0.3-1.6
						c0.2-0.5,0.5-0.9,0.9-1.3c0.4-0.4,0.8-0.7,1.3-1c0.5-0.3,1.1-0.5,1.7-0.7c0.6-0.2,1.3-0.3,1.9-0.4c0.7-0.1,1.4-0.1,2.1-0.1
						c0-0.4,0.1-0.8,0.1-1.2S81.4,82.3,81.4,81.8z M75.4,88.5c0,0.2,0,0.5,0.1,0.7c0.1,0.2,0.1,0.4,0.3,0.6c0.1,0.2,0.3,0.3,0.5,0.4
						c0.2,0.1,0.4,0.2,0.7,0.2c0.3,0,0.6-0.1,0.9-0.2c0.3-0.1,0.7-0.3,1-0.6c0.3-0.3,0.6-0.5,0.9-0.9c0.3-0.3,0.5-0.7,0.7-1.1
						c0.2-0.4,0.4-0.8,0.5-1.2c0.1-0.4,0.2-0.9,0.3-1.3c-0.5,0-1,0-1.4,0.1c-0.5,0-0.9,0.1-1.3,0.2c-0.4,0.1-0.8,0.2-1.2,0.4
						c-0.3,0.2-0.7,0.4-1,0.6c-0.3,0.2-0.5,0.5-0.6,0.9C75.5,87.7,75.4,88.1,75.4,88.5L75.4,88.5z"/>
					<path class="st7" d="M92.2,65.8c-0.1,1.1-0.3,2.2-0.4,3.4c-0.1,1.2-0.2,2.3-0.4,3.5c-0.1,1.2-0.2,2.4-0.3,3.6
						c-0.1,1.2-0.2,2.4-0.3,3.5c-0.1,1.2-0.1,2.3-0.2,3.4c0,1.1-0.1,2.2-0.1,3.2c0,0.6,0,1.2,0,1.7s0,0.8,0.1,1.2
						c0,0.3,0.1,0.5,0.2,0.8c0,0.2,0.1,0.3,0.2,0.4c0.1,0.1,0.2,0.2,0.3,0.2c0.1,0,0.3,0.1,0.4,0.1c0.3,0,0.6-0.1,1-0.1
						c0.4-0.1,0.7-0.2,1.1-0.4l0.2,0.5c-0.3,0.2-0.6,0.4-0.9,0.6c-0.4,0.2-0.7,0.4-1.1,0.5c-0.4,0.2-0.7,0.3-1.1,0.4
						c-0.3,0.1-0.6,0.1-1,0.2c-0.3,0-0.6-0.1-0.8-0.3c-0.2-0.2-0.4-0.5-0.5-0.9c-0.1-0.5-0.2-1-0.2-1.6c0-0.6,0-1.4,0-2.4
						c0-0.3,0-0.8,0-1.4c0-0.6,0-1.4,0.1-2.2c0.1-0.8,0.1-1.7,0.1-2.7c0-1,0.1-2,0.1-3.1c0.1-1.1,0.1-2.1,0.2-3.2
						c0.1-1.1,0.1-2.1,0.2-3.1c0.1-1,0.1-1.9,0.2-2.9c0.1-1,0.1-1.7,0.1-2.4c0-0.1,0-0.3,0.1-0.4c0.1-0.1,0.2-0.2,0.3-0.3
						c0.1-0.1,0.3-0.1,0.4-0.2c0.2,0,0.3,0,0.5,0C91.4,65.5,91.8,65.6,92.2,65.8z"/>
					<path class="st7" d="M103.3,81.8c0-0.5-0.1-0.9-0.3-1.3c-0.1-0.4-0.4-0.7-0.7-1c-0.3-0.2-0.6-0.4-1-0.5c-0.3-0.1-0.7-0.2-1-0.2
						c-0.4,0-0.8,0-1.2,0.1c-0.3,0.1-0.5,0.2-0.8,0.4c-0.2,0.2-0.3,0.4-0.4,0.6c-0.1,0.2-0.1,0.5-0.1,0.7c0,0.3,0.1,0.6,0.2,1
						c0.1,0.3,0.3,0.7,0.5,1v0.1c-0.3,0.2-0.7,0.3-1.1,0.3c-0.2,0-0.4,0-0.6-0.1c-0.2-0.1-0.3-0.2-0.5-0.3c-0.1-0.1-0.3-0.3-0.3-0.5
						c-0.1-0.2-0.1-0.4-0.1-0.6c0-0.4,0.1-0.8,0.2-1.1c0.2-0.4,0.4-0.7,0.7-1c0.3-0.3,0.7-0.5,1.1-0.8c0.4-0.2,0.8-0.4,1.2-0.6
						c0.4-0.1,0.8-0.3,1.3-0.4c0.4-0.1,0.8-0.1,1.2-0.1c0.6,0,1.2,0.1,1.7,0.3c0.5,0.2,0.9,0.4,1.2,0.8c0.3,0.4,0.5,0.8,0.7,1.3
						c0.1,0.5,0.2,1.1,0.2,1.7c0,0.4,0,0.9,0,1.4s-0.1,1-0.1,1.6c0,0.6-0.1,1.1-0.1,1.7c0,0.6,0,1.2,0,1.8c-0.1,0.7,0.1,1.5,0.5,2.1
						c0.3,0.5,0.8,0.7,1.4,0.7c0.6,0,1.2-0.2,1.7-0.6l0.3,0.4c-0.4,0.4-0.9,0.7-1.4,1c-0.5,0.2-1.1,0.3-1.6,0.3
						c-0.4,0-0.8-0.1-1.2-0.2c-0.4-0.1-0.7-0.3-1-0.6c-0.3-0.3-0.5-0.7-0.6-1.1c-0.2-0.5-0.2-1-0.2-1.5c0-0.2,0-0.3,0-0.5
						s0-0.3,0.1-0.5H103c-0.3,0.6-0.6,1.1-1,1.7c-0.3,0.5-0.7,1.1-1.2,1.5c-0.4,0.4-0.9,0.8-1.4,1c-0.5,0.3-1,0.4-1.6,0.4
						c-0.4,0-0.8-0.1-1.2-0.2c-0.4-0.1-0.7-0.4-1-0.6c-0.3-0.3-0.5-0.6-0.6-1c-0.2-0.4-0.2-0.8-0.2-1.2c0-0.5,0.1-1.1,0.3-1.6
						c0.2-0.5,0.5-0.9,0.9-1.3c0.4-0.4,0.8-0.7,1.3-1c0.5-0.3,1.1-0.5,1.7-0.7c0.6-0.2,1.3-0.3,1.9-0.4c0.7-0.1,1.4-0.1,2.1-0.1
						c0-0.4,0.1-0.8,0.1-1.2C103.3,82.7,103.3,82.3,103.3,81.8z M97.3,88.5c0,0.2,0,0.5,0.1,0.7c0.1,0.2,0.1,0.4,0.3,0.6
						c0.1,0.2,0.3,0.3,0.5,0.4c0.2,0.1,0.4,0.2,0.7,0.2c0.3,0,0.7-0.1,1-0.2c0.3-0.1,0.7-0.3,1-0.6c0.3-0.3,0.6-0.5,0.9-0.9
						c0.3-0.3,0.5-0.7,0.7-1.1c0.2-0.4,0.4-0.8,0.5-1.2c0.2-0.4,0.2-0.9,0.3-1.3c-0.5,0-1,0-1.4,0.1c-0.5,0-0.9,0.1-1.3,0.2
						c-0.4,0.1-0.8,0.2-1.2,0.4c-0.4,0.2-0.7,0.4-1,0.6c-0.3,0.2-0.5,0.5-0.6,0.9C97.4,87.7,97.4,88.1,97.3,88.5L97.3,88.5z"/>
					<path class="st7" d="M110.8,88.3c0,0.4,0.2,0.9,0.4,1.3c0.2,0.3,0.5,0.6,0.8,0.9c0.3,0.2,0.7,0.4,1.1,0.5
						c0.4,0.1,0.8,0.2,1.2,0.2c0.3,0,0.7,0,1-0.1c0.3-0.1,0.6-0.2,0.9-0.4c0.2-0.2,0.5-0.4,0.6-0.7c0.2-0.3,0.2-0.6,0.2-0.9
						c0-0.3-0.1-0.6-0.2-0.9c-0.2-0.3-0.4-0.5-0.6-0.7c-0.3-0.2-0.6-0.4-1-0.6c-0.4-0.2-0.7-0.4-1.1-0.6l-1-0.5
						c-0.3-0.2-0.7-0.4-1-0.5c-0.3-0.2-0.7-0.4-1-0.6c-0.3-0.2-0.5-0.5-0.7-0.8c-0.2-0.3-0.4-0.6-0.5-1c-0.1-0.4-0.2-0.8-0.2-1.1
						c0-0.4,0.1-0.8,0.2-1.2c0.2-0.4,0.4-0.7,0.6-1c0.3-0.3,0.6-0.6,1-0.8c0.4-0.2,0.7-0.4,1.1-0.6c0.4-0.2,0.8-0.3,1.2-0.3
						c0.4-0.1,0.8-0.1,1.2-0.1c0.5,0,1,0.1,1.5,0.2c0.4,0.1,0.8,0.3,1.2,0.5c0.3,0.2,0.6,0.5,0.8,0.8c0.2,0.3,0.3,0.7,0.3,1.1
						c0,0.2,0,0.3-0.1,0.5c-0.1,0.2-0.1,0.3-0.3,0.5c-0.1,0.2-0.3,0.3-0.5,0.4c-0.2,0.1-0.5,0.2-0.7,0.2c-0.3,0-0.6,0-0.9-0.1v-0.1
						c0.1-0.2,0.2-0.4,0.2-0.6c0-0.2,0.1-0.3,0.1-0.5c0-0.3-0.1-0.5-0.2-0.8c-0.1-0.2-0.3-0.4-0.5-0.5c-0.2-0.1-0.5-0.2-0.7-0.3
						c-0.7-0.1-1.4-0.1-2,0.1c-0.3,0.1-0.7,0.3-1,0.5c-0.2,0.2-0.4,0.4-0.6,0.7c-0.1,0.2-0.2,0.5-0.2,0.8c0,0.3,0.1,0.7,0.3,1
						c0.2,0.3,0.5,0.6,0.7,0.8c0.3,0.2,0.7,0.5,1.1,0.7c0.4,0.2,0.8,0.4,1.3,0.6l1.5,0.7c0.5,0.2,0.9,0.5,1.3,0.9
						c0.4,0.3,0.7,0.7,1,1.1c0.2,0.4,0.4,0.9,0.4,1.5c0,0.6-0.1,1.2-0.4,1.8c-0.3,0.5-0.7,1-1.2,1.3c-0.5,0.4-1.1,0.6-1.7,0.8
						c-0.6,0.2-1.3,0.3-2,0.3c-0.4,0-0.7,0-1.1-0.1c-0.4-0.1-0.7-0.1-1.1-0.2c-0.3-0.1-0.6-0.2-1-0.4c-0.3-0.1-0.6-0.3-0.8-0.5
						c-0.2-0.2-0.4-0.4-0.5-0.7c-0.1-0.2-0.2-0.5-0.2-0.8c0-0.2,0.1-0.4,0.2-0.6c0.1-0.2,0.2-0.3,0.4-0.4c0.2-0.1,0.4-0.2,0.6-0.2
						c0.2-0.1,0.4-0.1,0.7-0.1L110.8,88.3z"/>
					<path class="st7" d="M122.3,88.3c0,0.4,0.2,0.9,0.4,1.3c0.2,0.3,0.5,0.6,0.8,0.9c0.3,0.2,0.7,0.4,1.1,0.5
						c0.4,0.1,0.8,0.2,1.2,0.2c0.3,0,0.7,0,1-0.1c0.3-0.1,0.6-0.2,0.9-0.4c0.2-0.2,0.5-0.4,0.6-0.7c0.1-0.3,0.2-0.6,0.2-0.9
						c0-0.3-0.1-0.6-0.2-0.9c-0.2-0.3-0.4-0.5-0.6-0.7c-0.3-0.2-0.6-0.4-1-0.6c-0.4-0.2-0.7-0.4-1.1-0.6l-1-0.5
						c-0.3-0.2-0.7-0.4-1-0.5c-0.3-0.2-0.6-0.4-0.9-0.6c-0.3-0.2-0.5-0.5-0.7-0.8c-0.2-0.3-0.4-0.6-0.5-1c-0.1-0.4-0.2-0.8-0.2-1.1
						c0-0.4,0.1-0.8,0.2-1.2c0.2-0.4,0.4-0.7,0.6-1c0.3-0.3,0.6-0.6,1-0.8c0.4-0.2,0.7-0.4,1.1-0.6c0.4-0.2,0.8-0.3,1.2-0.3
						c0.4-0.1,0.8-0.1,1.2-0.1c0.5,0,1,0.1,1.5,0.2c0.4,0.1,0.8,0.3,1.2,0.5c0.3,0.2,0.6,0.5,0.8,0.8c0.2,0.3,0.3,0.7,0.3,1.1
						c0,0.2,0,0.3-0.1,0.5c-0.1,0.2-0.1,0.3-0.3,0.5c-0.1,0.2-0.3,0.3-0.5,0.4c-0.2,0.1-0.5,0.2-0.7,0.2c-0.3,0-0.6,0-0.9-0.1v-0.1
						c0.1-0.2,0.2-0.4,0.2-0.6c0-0.2,0.1-0.3,0.1-0.5c0-0.3-0.1-0.5-0.2-0.8c-0.1-0.2-0.3-0.4-0.5-0.5c-0.2-0.1-0.5-0.2-0.7-0.3
						c-0.7-0.1-1.4-0.1-2,0.1c-0.3,0.1-0.7,0.3-1,0.5c-0.2,0.2-0.4,0.4-0.6,0.7c-0.1,0.2-0.2,0.5-0.2,0.8c0,0.3,0.1,0.7,0.3,1
						c0.2,0.3,0.5,0.6,0.7,0.8c0.3,0.2,0.7,0.5,1.1,0.7l1.3,0.6l1.5,0.7c0.5,0.2,0.9,0.5,1.3,0.9c0.4,0.3,0.7,0.7,1,1.1
						c0.2,0.4,0.4,0.9,0.4,1.5c0,0.6-0.1,1.2-0.4,1.8c-0.3,0.5-0.7,1-1.2,1.3c-0.5,0.4-1.1,0.6-1.7,0.8c-0.6,0.2-1.3,0.3-2,0.3
						c-0.4,0-0.7,0-1.1-0.1c-0.4-0.1-0.7-0.1-1.1-0.2c-0.3-0.1-0.6-0.2-1-0.4c-0.3-0.1-0.6-0.3-0.8-0.5c-0.2-0.2-0.4-0.4-0.5-0.7
						c-0.1-0.2-0.2-0.5-0.2-0.8c0-0.2,0.1-0.4,0.2-0.6c0.1-0.2,0.2-0.3,0.4-0.4c0.2-0.1,0.4-0.2,0.6-0.2c0.2-0.1,0.4-0.1,0.7-0.1
						L122.3,88.3z"/>
					<path class="st7" d="M149.5,89l0.2,0.1l0.2,0.1c0,0,0.1,0.1,0.1,0.1c0,0,0.1,0.1,0.1,0.1c0,0,0,0.1,0,0.1
						c-0.3,0.5-0.7,0.9-1.2,1.3c-0.4,0.4-0.8,0.7-1.3,1c-0.4,0.2-0.9,0.4-1.4,0.6c-0.5,0.1-0.9,0.2-1.4,0.2c-0.7,0-1.5-0.2-2.1-0.5
						c-0.6-0.3-1.2-0.7-1.7-1.3c-0.5-0.6-0.8-1.2-1.1-1.9c-0.3-0.8-0.4-1.6-0.4-2.4c0-0.7,0.1-1.4,0.2-2.1c0.3-1.4,0.9-2.6,1.7-3.7
						c0.4-0.5,0.9-1,1.4-1.4c0.5-0.4,1.1-0.7,1.7-1c0.7-0.2,1.3-0.3,2-0.3c0.5,0,0.9,0.1,1.4,0.2c0.4,0.1,0.8,0.3,1.1,0.6
						c0.3,0.2,0.6,0.5,0.8,0.9c0.5,1,0.4,2.1-0.4,2.9c-0.5,0.5-1.1,1-1.8,1.3c-0.9,0.4-1.8,0.7-2.7,0.8c-1.1,0.2-2.2,0.4-3.3,0.5
						v0.2c0,0.8,0.1,1.5,0.3,2.3c0.2,0.6,0.5,1.2,0.9,1.7c0.3,0.5,0.8,0.9,1.3,1.1c0.5,0.3,1.1,0.4,1.6,0.4c0.6,0,1.2-0.2,1.8-0.4
						C148.3,90,149,89.6,149.5,89z M147.7,81.2c0-0.3,0-0.6-0.2-0.8c-0.2-0.5-0.6-0.9-1.1-1.1c-0.3-0.1-0.5-0.2-0.8-0.2
						c-0.4,0-0.8,0.1-1.1,0.2c-0.4,0.1-0.7,0.4-1,0.6c-0.3,0.3-0.5,0.6-0.7,0.9c-0.2,0.3-0.4,0.7-0.5,1.1c-0.1,0.4-0.3,0.8-0.4,1.2
						c-0.1,0.4-0.1,0.8-0.2,1.2c0.8,0,1.7-0.2,2.5-0.3c0.6-0.1,1.3-0.3,1.8-0.6c0.5-0.2,0.8-0.5,1.2-0.9
						C147.6,82,147.7,81.6,147.7,81.2z"/>
					<path class="st7" d="M160.1,82c0-0.5-0.1-0.9-0.2-1.3c-0.3-0.7-0.9-1.2-1.6-1.5c-0.3-0.1-0.7-0.2-1-0.2c-0.4,0-0.8,0-1.2,0.1
						c-0.3,0.1-0.5,0.2-0.8,0.4c-0.2,0.2-0.3,0.4-0.4,0.6c-0.1,0.2-0.1,0.5-0.1,0.7c0,0.3,0.1,0.6,0.2,1c0.1,0.3,0.3,0.7,0.5,1v0.1
						c-0.3,0.2-0.7,0.3-1.1,0.3c-0.2,0-0.4,0-0.6-0.1c-0.2-0.1-0.3-0.2-0.5-0.3c-0.1-0.1-0.3-0.3-0.3-0.5c-0.1-0.2-0.1-0.4-0.1-0.6
						c0-0.4,0.1-0.7,0.3-1.1c0.2-0.4,0.4-0.7,0.7-1c0.3-0.3,0.7-0.5,1.1-0.7c0.4-0.2,0.8-0.4,1.2-0.6c0.4-0.1,0.9-0.3,1.3-0.4
						c0.4-0.1,0.8-0.1,1.2-0.1c0.6,0,1.2,0.1,1.7,0.3c0.5,0.2,0.9,0.4,1.2,0.8c0.3,0.4,0.5,0.8,0.6,1.2c0.1,0.5,0.2,1.1,0.2,1.7
						c0,0.4,0,0.9,0,1.4c0,0.5-0.1,1.1-0.1,1.6c0,0.6-0.1,1.1-0.1,1.7c0,0.6-0.1,1.2-0.1,1.8c0,0.7,0.1,1.5,0.5,2.1
						c0.3,0.5,0.8,0.7,1.4,0.7c0.6,0,1.2-0.2,1.7-0.6l0.3,0.4c-0.4,0.4-0.9,0.7-1.4,1c-0.5,0.2-1.1,0.3-1.6,0.3
						c-0.4,0-0.8-0.1-1.2-0.2c-0.4-0.1-0.7-0.3-1-0.6c-0.3-0.3-0.5-0.7-0.6-1.1c-0.1-0.5-0.2-1-0.2-1.5c0-0.2,0-0.3,0-0.5
						c0-0.2,0-0.4,0.1-0.5h-0.1c-0.3,0.6-0.6,1.1-1,1.6c-0.3,0.5-0.8,1-1.2,1.5c-0.4,0.4-0.9,0.8-1.4,1c-0.5,0.3-1,0.4-1.6,0.4
						c-0.4,0-0.8-0.1-1.2-0.2c-0.4-0.1-0.7-0.4-1-0.6c-0.3-0.3-0.5-0.6-0.6-1c-0.1-0.4-0.2-0.8-0.2-1.2c0-0.5,0.1-1.1,0.3-1.6
						c0.2-0.5,0.5-0.9,0.9-1.3c0.4-0.4,0.8-0.7,1.3-1c0.5-0.3,1.1-0.5,1.7-0.7c0.6-0.2,1.3-0.3,1.9-0.4c0.7-0.1,1.4-0.1,2.1-0.1
						c0-0.4,0.1-0.8,0.1-1.2S160.1,82.5,160.1,82z M154.1,88.7c0,0.2,0,0.5,0.1,0.7c0,0.2,0.1,0.4,0.3,0.6c0.1,0.2,0.3,0.3,0.5,0.4
						c0.2,0.1,0.4,0.2,0.7,0.1c0.3,0,0.6-0.1,0.9-0.2c0.3-0.1,0.7-0.3,1-0.6c0.3-0.3,0.6-0.5,0.9-0.9c0.3-0.3,0.5-0.7,0.7-1.1
						c0.2-0.4,0.4-0.8,0.6-1.3c0.1-0.4,0.2-0.9,0.3-1.3c-0.5,0-1,0-1.4,0.1c-0.5,0-0.9,0.1-1.3,0.2c-0.4,0.1-0.8,0.2-1.2,0.4
						c-0.4,0.1-0.7,0.4-1,0.6c-0.3,0.3-0.5,0.6-0.6,0.9C154.2,87.9,154.1,88.3,154.1,88.7z"/>
					<path class="st7" d="M170.2,79.8c0,0.4,0,1,0,1.4s-0.1,1-0.1,1.5c0,0.5-0.1,1-0.1,1.5c0,0.5-0.1,1-0.1,1.5s-0.1,0.9-0.1,1.3
						c0,0.4,0,0.7,0,1c0,0.6,0.1,1.2,0.4,1.7c0.3,0.4,0.7,0.6,1.2,0.5c0.7-0.1,1.3-0.4,1.7-0.9c0.7-0.8,1.3-1.7,1.7-2.6
						c0.6-1.2,1-2.5,1.3-3.8c0.4-1.5,0.6-3.1,0.7-4.6l2.1-0.2h0.2c-0.1,0.6-0.1,1.3-0.2,1.9s-0.1,1.4-0.1,2.1s-0.1,1.4-0.1,2
						c0,0.7,0,1.3,0,1.8c0,0.9,0.1,1.7,0.2,2.6c0.1,0.5,0.2,1.1,0.5,1.6c0.1,0.3,0.4,0.6,0.7,0.8c0.2,0.1,0.5,0.2,0.8,0.2
						c0.2,0,0.3,0,0.4-0.1l0.4-0.1c0.1-0.1,0.2-0.1,0.4-0.2l0.3-0.2l0.3,0.4c-0.2,0.2-0.4,0.4-0.6,0.6c-0.2,0.2-0.5,0.3-0.8,0.4
						c-0.3,0.1-0.5,0.2-0.8,0.3c-0.3,0.1-0.6,0.1-0.9,0.1c-0.4,0-0.8-0.1-1.1-0.2c-0.4-0.2-0.7-0.4-1-0.7c-0.3-0.4-0.5-0.9-0.7-1.4
						c-0.2-0.7-0.3-1.4-0.2-2.2c0-0.3,0-0.6,0-0.8s0-0.6,0.1-0.9s0.1-0.7,0.1-1c0-0.4,0.1-0.8,0.2-1.2h-0.1
						c-0.4,1.4-0.8,2.8-1.4,4.1c-0.4,1-1,1.9-1.6,2.7c-0.4,0.6-1,1.1-1.6,1.4c-0.5,0.3-1,0.4-1.6,0.4c-0.4,0-0.7-0.1-1.1-0.2
						c-0.4-0.1-0.7-0.3-1-0.6c-0.3-0.3-0.5-0.7-0.6-1.1c-0.2-0.6-0.3-1.2-0.2-1.7c0-0.4,0-1,0.1-1.6s0.1-1.2,0.2-1.9
						s0.1-1.4,0.2-2.1s0.1-1.4,0.1-2.1c0-0.3,0-0.5,0-0.7c0-0.2-0.1-0.4-0.1-0.5c-0.1-0.1-0.2-0.2-0.3-0.3c-0.2-0.1-0.3-0.1-0.5-0.1
						c-0.3,0-0.6,0-0.9,0.1c-0.4,0.1-0.7,0.2-1.1,0.3l-0.1-0.7c0.5-0.2,1-0.4,1.5-0.5l1.2-0.3l0.9-0.2c0.2,0,0.4-0.1,0.6-0.1
						c0.2,0,0.4,0,0.6,0.1c0.2,0.1,0.3,0.2,0.4,0.4c0.1,0.2,0.2,0.4,0.2,0.6C170.2,79.3,170.2,79.6,170.2,79.8z"/>
					<path class="st7" d="M223.7,81.2c2,2.3,3.3,6.1,2.1,9.2c-2.4,5.9-13.3,5.8-19,5.7c-3,0-18.6-0.2-20.3-6.7
						c-1-3.6,2.6-7.3,3.1-7.7c3.4-3.5,7.9-3.6,16.9-3.8C215.9,77.8,220.8,77.8,223.7,81.2z"/>
					<path class="st8" d="M223.3,80.8c1.9,1.8,3,4.9,1.8,7.3c-2.5,4.6-12.9,4.5-18.4,4.4c-2.9,0-17.8-0.2-19.4-5.4
						c-0.8-2.9,2.7-5.7,3.1-6.1c3.3-2.7,7.7-2.8,16.3-2.9C215.9,78,220.6,78.1,223.3,80.8z"/>
					<path class="st7" d="M218.5,62c0,2.7-7.4,4.8-16.5,4.8c-9.1,0-9.1-9.7,0-9.7C211.1,57.2,218.5,59.3,218.5,62z"/>
					<path class="st8" d="M217.8,61.2c0,2-7.1,3.5-15.6,3.3c-8.6-0.2-8.4-7.5,0.2-7.3C210.9,57.4,217.8,59.2,217.8,61.2z"/>
					<path class="st7" d="M223.2,73.8c-1.2,3.6-8.6,3.9-15.2,4.1c-5.8,0.2-16.4,0.6-17.7-3.4c-0.7-2.1,1.4-4.4,1.9-4.9
						c1.7-1.9,4-2.7,13.6-3.1c12.6-0.5,14.6,0.6,15.8,2C221.7,68.7,224,71.4,223.2,73.8z"/>
					<path class="st8" d="M222.9,72.5c-1.2,2.9-8.3,3.2-14.8,3.3c-5.7,0.2-16,0.5-17.2-2.7c-0.6-1.7,1.4-3.5,1.8-3.9
						c1.7-1.5,3.9-2.2,13.2-2.5c12.2-0.4,14.2,0.5,15.4,1.6C221.4,68.4,223.7,70.6,222.9,72.5z"/>
					<path class="st7" d="M213.1,54.5c-0.2,1.7-3.6,2.9-6.1,2.9c-2.2,0-5.6-0.8-6.1-2.9c-0.1-0.8,0.1-1.6,0.5-2.3
						c1.6-2.3,6-2.4,8.9-0.9C210.8,51.6,213.3,52.9,213.1,54.5z"/>
					<path class="st8" d="M212.5,53.7c-0.1,1.5-3.2,2.6-5.6,2.7c-2.1,0.1-5.2-0.6-5.7-2.3c-0.1-0.7,0-1.4,0.4-2
						c1.4-2.1,5.5-2.3,8.2-1C210.2,51.2,212.6,52.3,212.5,53.7z"/>
					<g>
						<path class="st9" d="M202.2,81c0.2,0.6-1.2,1.4-4.1,3.1c-1.3,0.8-2.7,1.4-4.1,1.7c-1,0.2-2.4,0.5-3.4,0.1
							c-1.1-0.5-1-1.7-0.5-2.5c1-1.6,3.6-2.3,4.4-2.5C197.7,80,201.8,80.1,202.2,81z"/>
					</g>
					<g>
						<path class="st9" d="M201.4,69.3c0,0.4-0.8,0.8-2.1,1.4c-0.7,0.4-1.5,0.7-2.4,1c-1.7,0.3-3.9,0.1-4.1-0.6c-0.1-0.7,2-2,4-2.4
							C199,68.2,201.4,68.7,201.4,69.3z"/>
					</g>
					<g>
						<path class="st9" d="M205.3,58.7c0,0.2-1,0.4-3,1c-1.6,0.4-2.3,0.6-3.1,0.3c-0.4-0.2-1.2-0.5-1.2-1c0-0.6,2-1,3.2-1.1
							C203.2,57.8,205.3,58.3,205.3,58.7z"/>
					</g>
					<g>
						<path class="st9" d="M203.6,53.9c0.3-0.1,0.3-0.5,0.5-0.9c0.6-1.2,1.9-1.2,1.9-1.5c-0.1-0.3-1.3-0.6-2.2-0.1
							c-0.7,0.4-1.4,1.2-1.2,1.9C202.7,53.7,203.2,54,203.6,53.9z"/>
					</g>
					
						<linearGradient id="SVGID_6_" gradientUnits="userSpaceOnUse" x1="133.3801" y1="56.3272" x2="139.1486" y2="56.3272" gradientTransform="matrix(1 0 0 -1 0 132)">
						<stop  offset="0" style="stop-color:#76C3AF"/>
						<stop  offset="0.33" style="stop-color:#78C4B0"/>
						<stop  offset="0.52" style="stop-color:#81C7B4"/>
						<stop  offset="0.68" style="stop-color:#8FCDBB"/>
						<stop  offset="0.81" style="stop-color:#A3D5C5"/>
						<stop  offset="0.94" style="stop-color:#BDE0D2"/>
						<stop  offset="1" style="stop-color:#CCE6D9"/>
					</linearGradient>
					<path class="st10" d="M138.5,75.7c0.5-1,0.7-2.1,0.6-3.2c-0.2-0.8-0.6-1.6-1.3-2.1c-0.2-0.1-1.8-1.2-3.2-0.3
						c-1.1,0.7-1.5,2.1-1,3.3c0.4,0.8,1,0.7,1.4,1.3c1.6,1.9-1.3,6.6-0.8,6.8c0,0,0.2,0,2-2.4C137.1,78.1,137.9,77,138.5,75.7z"/>
					<path class="st1" d="M137.3,75.4c0.1-0.4,0.1-0.8,0.1-1.3c0-0.2-0.1-0.5-0.1-0.7c0-0.2-0.1-0.3-0.2-0.4l0,0
						c-0.3-0.3-0.3-0.7-0.2-1c0.1-0.2,0.3-0.4,0.5-0.4c0.3,0,0.8,0.4,0.8,1.1c0,0.1,0,0.2-0.1,0.4L137.3,75.4z"/>
				</g>
			</g>
		</g>
	</g>
</g>
</svg>
